<?xml version="1.0" standalone="no"?>
<!DOCTYPE svg PUBLIC "-//W3C//DTD SVG 20010904//EN"
 "http://www.w3.org/TR/2001/REC-SVG-20010904/DTD/svg10.dtd">
<svg version="1.0" xmlns="http://www.w3.org/2000/svg"
 width="512.000000pt" height="512.000000pt" viewBox="0 0 512.000000 512.000000"
 preserveAspectRatio="xMidYMid meet">
<metadata>
Created by potrace 1.11, written by Peter Selinger 2001-2013
</metadata>
<g transform="translate(0.000000,512.000000) scale(0.100000,-0.100000)"
fill="#000000" stroke="none">
<path d="M0 2560 l0 -2560 2560 0 2560 0 0 2560 0 2560 -2560 0 -2560 0 0
-2560z m2360 1645 l0 -295 -280 0 -280 0 0 -1655 0 -1655 -395 0 -395 0 0
1655 0 1655 -285 0 -285 0 0 295 0 295 960 0 960 0 0 -295z m1375 285 c357
-33 588 -124 740 -291 114 -127 181 -272 219 -476 33 -177 37 -335 33 -1238
-3 -769 -6 -904 -20 -994 -37 -229 -79 -359 -152 -472 -122 -189 -283 -296
-535 -358 -206 -50 -263 -54 -847 -58 l-553 -5 0 1951 0 1951 503 0 c276 0
552 -5 612 -10z"/>
<path d="M3440 2550 l0 -1400 58 0 c75 0 236 18 284 31 51 13 100 58 129 117
l24 47 0 1200 0 1200 -28 50 c-33 59 -74 90 -157 116 -50 15 -226 39 -292 39
-17 0 -18 -73 -18 -1400z"/>
</g>
</svg>
