<svg xmlns="http://www.w3.org/2000/svg" width="26" height="28"><path d="M24.469 17.453l-2.609.516 2.906 1.672c.469.266.641.891.359 1.359s-.891.641-1.359.359l-2.906-1.656.859 2.5c.438 1.25-1.469 1.891-1.891.656l-1.594-4.688L14 15.733v4.891l3.25 3.719c.875.984-.641 2.312-1.5 1.313l-1.75-2V27c0 .547-.453 1-1 1s-1-.453-1-1v-3.344l-1.75 2c-.859 1-2.375-.328-1.5-1.313L12 20.624v-4.891l-4.234 2.438-1.594 4.688c-.422 1.234-2.328.594-1.891-.656l.859-2.5-2.906 1.656c-.469.281-1.078.109-1.359-.359s-.109-1.094.359-1.359l2.906-1.672-2.609-.516c-1.297-.266-.906-2.219.391-1.969l4.844.969L11 14l-4.234-2.453-4.844.969c-.063.016-.141.016-.203.016-1.188 0-1.359-1.75-.187-1.984l2.609-.516L1.235 8.36a.993.993 0 0 1-.359-1.359.983.983 0 0 1 1.359-.359l2.906 1.656-.859-2.5c-.438-1.25 1.469-1.891 1.891-.656L7.767 9.83l4.234 2.438V7.377l-3.25-3.719c-.875-.984.641-2.312 1.5-1.313l1.75 2V1.001c0-.547.453-1 1-1s1 .453 1 1v3.344l1.75-2c.859-1 2.375.328 1.5 1.313l-3.25 3.719v4.891l4.234-2.438 1.594-4.688c.422-1.234 2.328-.594 1.891.656l-.859 2.5 2.906-1.656c.469-.281 1.078-.109 1.359.359s.109 1.094-.359 1.359l-2.906 1.672 2.609.516c1.172.234 1 1.984-.187 1.984-.063 0-.141 0-.203-.016l-4.844-.969L15.002 14l4.234 2.453 4.844-.969c1.297-.25 1.687 1.703.391 1.969z"/></svg>