<svg data-name="Layer 1" xmlns="http://www.w3.org/2000/svg" viewBox="0 0 269.07 84.57" width="3em" height="3em"><path d="M184.62 42.79h-1.42v-.5h3.42v.5h-1.42v3.73h-.58v-3.73zM191.1 42.71h-.01l-1.36 3.81h-.55l-1.35-3.81h-.01v3.81h-.59v-4.23h1.05l1.22 3.48h.01l1.19-3.48h.98v4.23h-.58v-3.81zM95.18 25.25a1.44 1.44 0 00-.5-1.24 2.21 2.21 0 00-1.49-.44 1.53 1.53 0 00-1.66 1.28c0 1 1.24 1.35 2.26 1.62 2.34.6 5.73.82 5.73 4.59 0 2.94-2.89 4.32-6.12 4.32s-6.1-.94-6.15-4.72h3.86c0 1.31.94 2 2.33 2 .89 0 2-.46 2-1.39 0-1.89-2.86-1.48-5.89-2.81a3.51 3.51 0 01-2.1-3.4c.15-3.31 3-4.21 6-4.21s5.83 1 5.6 4.38zM101.34 35.1V21.16H105v5.31a3.69 3.69 0 013-1.36 3.39 3.39 0 013.63 3.5v6.49H108v-5.7c0-.95-.27-2-1.41-2-1.81 0-1.58 2-1.58 2.11v5.59zM117.6 27.22c.42-1.6 1.62-2.14 3.24-2.11v3.11h-.77c-1.92 0-2.57 1.15-2.51 3v3.88h-3.67v-7.21a22.48 22.48 0 00-.12-2.48h3.73zM122.33 25.41H126v9.69h-3.66zm0-4.25H126v2.59h-3.7zM132 26.47a3.69 3.69 0 013-1.36 3.39 3.39 0 013.63 3.5v6.49H135v-5.7c0-.95-.27-2-1.41-2-1.81 0-1.58 2-1.58 2.11v5.59h-3.67v-7.21a22.29 22.29 0 00-.11-2.48H132zM147.26 29a2.52 2.52 0 00-.45-1.45 1.38 1.38 0 00-1.28-.62c-1.27.06-1.58 1-1.67 2.07zm-3.48 2c0 1.25.31 2.33 1.68 2.33a1.6 1.6 0 001.8-1.39h3.39a3.48 3.48 0 01-1.83 2.7 5.63 5.63 0 01-3.07.75c-3.88 0-5.43-1.65-5.43-5.46 0-3.07 2.3-4.81 5.21-4.81 3.94 0 5.2 2.27 5.2 5.88zM156.12 27.22c.42-1.6 1.62-2.14 3.24-2.11v3.11h-.77c-1.92 0-2.57 1.15-2.51 3v3.88h-3.67v-7.21a22.48 22.48 0 00-.12-2.48h3.73zM166.14 28.4a1.2 1.2 0 00-.24-.82 1.31 1.31 0 00-1-.34.79.79 0 00-.87.87c0 .71 1.49.67 3.78 1.39a2.49 2.49 0 012 2.66c0 2.57-2.42 3.22-4.63 3.22-2.38 0-4.7-.47-4.68-3.43h3.47a1.1 1.1 0 00.26.87 1.16 1.16 0 00.87.44c.71 0 1.23-.27 1.23-.89 0-1.71-5.73-.69-5.73-4.2 0-2.4 2.55-3.06 4.48-3.06 2.29 0 4.42.6 4.57 3.29zM177.61 35.1V21.16h3.88v5.52h4.73v-5.52h3.86V35.1h-3.86v-5.72h-4.75v5.72h-3.86zM197.51 33.26c1.55 0 1.88-1.64 1.88-3s-.33-3-1.88-3-1.87 1.64-1.87 3 .33 3 1.87 3m5.64-3c0 3.57-2.61 5.13-5.64 5.13s-5.64-1.56-5.64-5.13 2.61-5.14 5.64-5.14 5.64 1.57 5.64 5.14M210 28.4a1.19 1.19 0 00-.23-.82 1.31 1.31 0 00-1-.34.79.79 0 00-.87.87c0 .71 1.49.67 3.79 1.39a2.49 2.49 0 011.94 2.66c0 2.57-2.41 3.22-4.63 3.22-2.37 0-4.69-.47-4.67-3.43h3.47a1.06 1.06 0 00.25.87 1.18 1.18 0 00.87.44c.72 0 1.24-.27 1.24-.89 0-1.71-5.74-.69-5.74-4.2 0-2.4 2.55-3.06 4.48-3.06 2.3 0 4.42.6 4.58 3.29zM218.85 30.25c0 1.24.23 3 1.77 3s1.78-1.77 1.78-3-.23-3-1.78-3-1.77 1.78-1.77 3m0-3.48a3.42 3.42 0 013.15-1.66c2.88 0 4.13 2.46 4.13 5 0 2.83-1.42 5.26-4.53 5.26a3.56 3.56 0 01-2.74-1.44v4.87h-3.67V25.41h3.67zM228.08 25.41h3.66v9.69h-3.66zm0-4.25h3.71v2.59h-3.71zM235 25.41v-1.47l3.67-1.39v2.86h2.12v2.31h-2.12v3.84c0 .26-.16 1.51.69 1.51a10.62 10.62 0 001.41-.06v2.18a9.83 9.83 0 01-2 .19c-2.49 0-4-.34-3.8-3.32v-4.34h-1.89v-2.31zM246.82 33.26c1.59 0 1.72-1.49 1.72-2.78a5 5 0 00-2 .21 1.43 1.43 0 00-1 1.3 1.27 1.27 0 001.25 1.27m1.86 1.84a5.39 5.39 0 01-.08-1.32 3.34 3.34 0 01-3.09 1.6c-2.3 0-3.49-1.23-3.45-3.22 0-2.35 2.2-3.32 5.36-3.32h1.16c0-.85.19-2.09-1.27-2a1.31 1.31 0 00-1.16 1.48h-3.45a2.64 2.64 0 011.67-2.61 8.34 8.34 0 013.35-.58c2 0 4.34.84 4.3 3v5c0 .4.08.83.21 2z"/><path stroke-width="3.67" stroke="#010101" d="M256.13 35.1V21.16"/><path d="M265.44 28.4a1.25 1.25 0 00-.23-.82 1.35 1.35 0 00-1-.34.79.79 0 00-.87.87c0 .71 1.49.67 3.78 1.39a2.49 2.49 0 012 2.66c0 2.57-2.41 3.22-4.63 3.22-2.38 0-4.7-.47-4.68-3.43h3.48a1.06 1.06 0 00.25.87 1.16 1.16 0 00.87.44c.71 0 1.23-.27 1.23-.89 0-1.71-5.73-.69-5.73-4.2 0-2.4 2.55-3.06 4.48-3.06 2.29 0 4.42.6 4.57 3.29zM88.79 55v-8.66h-2v-1.06h2v-2.07c0-1.66.68-2.41 2.34-2.41a5.21 5.21 0 011.1.21v.93a4.41 4.41 0 00-.72-.08c-1.58 0-1.62.79-1.56 2.18v1.24h2.2v1.06H90V55zM97.73 46.05c-2.34 0-3.27 2.28-3.27 4.08s.93 4.07 3.27 4.07 3.27-2.28 3.27-4.07-.92-4.08-3.26-4.08m4.52 4.08c0 2.55-1.43 5.13-4.52 5.13s-4.52-2.58-4.52-5.13S94.64 45 97.73 45s4.52 2.59 4.52 5.14M105.51 55h-1.16v-7.54c0-.75-.06-1.52-.09-2.18h1.19l.06 1.43a2.49 2.49 0 012.22-1.71 11.23 11.23 0 011.16 0v1.12c-.23 0-.48-.08-.72-.08-1.71 0-2.62 1.24-2.66 3.09zM124.49 44.29c-.23-1.69-1.7-2.39-3.28-2.39-3.57 0-4.65 3.24-4.65 6.1s1.08 6.1 4.65 6.1a3.25 3.25 0 003.43-2.51H126a4.63 4.63 0 01-4.78 3.67c-4.23 0-6-3.39-6-7.26s1.79-7.26 6-7.26c2.28 0 4.44 1 4.63 3.55zM129.32 46.75a3.32 3.32 0 013-1.76c3.17 0 3.42 2.8 3.42 3.92V55h-1.16v-6.28a2.4 2.4 0 00-2.55-2.67c-1.91 0-2.78 1.6-2.78 3.34V55h-1.16V41h1.16zM139.78 55h-1.15v-9.72h1.15zm.1-12.49h-1.35V41h1.35z"/><path stroke-width="1.16" stroke="#010101" d="M143.2 54.97V41.03"/><path d="M150.11 46.05c-2.2 0-2.91 2.05-2.91 3.9s.52 4.25 2.74 4.25c2.53 0 3.3-2.11 3.3-4.3 0-2-.87-3.85-3.13-3.85m3.17 7.49v-.08a3.94 3.94 0 01-3.32 1.8c-2.88 0-4-2.74-4-5.17s1.1-5.1 4-5.1a3.88 3.88 0 013.32 1.76V41h1.16v11.79c0 .75.06 1.53.09 2.18h-1.19zM158.2 55H157v-7.54c0-.75 0-1.52-.09-2.18h1.19l.06 1.43a2.5 2.5 0 012.26-1.71 11.18 11.18 0 011.16 0v1.12c-.23 0-.48-.08-.71-.08-1.72 0-2.63 1.24-2.67 3.09zM169.9 49.34c-.13-1.88-1.13-3.29-3.14-3.29s-2.9 1.58-3.06 3.29zm-6.23 1.06c0 2.06 1 3.8 3.36 3.8a2.89 2.89 0 002.8-2.32H171a4.06 4.06 0 01-4.38 3.38c-2.9 0-4.25-2.49-4.25-5.13s1.49-5.13 4.37-5.13c3.24 0 4.42 2.38 4.42 5.41zM174.6 55h-1.16v-7.54c0-.75-.06-1.52-.1-2.18h1.2l.06 1.43a3.34 3.34 0 013-1.76c3.17 0 3.42 2.8 3.42 3.92V55h-1.15v-6.28a2.41 2.41 0 00-2.56-2.67c-1.9 0-2.77 1.6-2.77 3.34zM42.29 13.53l3.31 15.65-2.05-.85-2.95-16.49a2.68 2.68 0 011.69 1.69"/><path d="M58.35 58A1.92 1.92 0 0157 59.89c-.53.14-13 3.62-14.37 3.93l-.38.09c-1.22.28-1.57-.08-2.19-1.69a4.07 4.07 0 01-.31-1.33.82.82 0 01.07-.38c.4.15 1.83.61 1.83.61a.91.91 0 00.54 0c.39-.13 10.64-3 12-3.53s1.56-2.61 1.56-3v-3.8a.85.85 0 10-1.69 0v3.8a2.21 2.21 0 01-.42 1.41c-.93.37-7.55 2.16-10.93 3.19 0 0-1-12.12 1.27-16.91l-3-3.38-.42-2.12 4 1.46a5.18 5.18 0 004.63 3.58 4.14 4.14 0 001.89-.48 1.07 1.07 0 00.42 1.07l4.1 2.31c.89.45 2.66 2.42 2.66 6zm-9.07-27.15c1.91 0 3.47 2.09 3.47 4.65s-1.56 4.65-3.47 4.65-3.47-2.08-3.47-4.65 1.55-4.65 3.47-4.65M34.67 42.29l-4.22-3.38s.54-3.16.84-5.08a5.15 5.15 0 006.77 0c.3 1.92.85 5.08.85 5.08zm-5.28-16.23A10.3 10.3 0 0130 22.5a35.38 35.38 0 014.67-.5 35.16 35.16 0 014.66.51 10.3 10.3 0 01.67 3.55 9.11 9.11 0 01-2.12 5.81 4.48 4.48 0 01-3.17 1.54 4.48 4.48 0 01-3.16-1.54 9.11 9.11 0 01-2.12-5.81m5.28 50.06l5.65 1.8-5.65 4.54-4.22-3.38a4.63 4.63 0 014.22-3m22.04-32.59l-3.89-2.26v-1.12a7 7 0 001.56-4.61c0-3.48-2.31-6.32-5.14-6.32S44.13 32 44.13 35.5v.65l-4-1.48-.42-2.53a10.69 10.69 0 001.69-6.08c0-1.15-2.11-13.8-2.11-13.8a2.36 2.36 0 00-.81-1.26 9 9 0 00-7.61 0 2.36 2.36 0 00-.87 1.26s-2.11 12.65-2.11 13.8a10.69 10.69 0 001.69 6.08l-.42 2.53L17 41.42s-3.48 1.6-3.48 5.1v16.91s-.33 3.07 3.59 7l17.56 14.14L42.84 78l-1-1.28-7.13-2.27-11.27-9.08c-2.51-2.51-2.3-4.47-2.3-4.47V50.75a.85.85 0 011.7 0V60.9s-.18 1.17 2 3.36l9.83 8 8.47-7 11-3.09v1.16s.31 2.4-3.3 6l-7.71 6.23 1 1.27 8.07-6.51c3.92-3.92 3.6-7 3.6-7v-1.44l1.88-.44A3.49 3.49 0 0060.05 58v-7.25c0-4.46-2.6-7-3.3-7.26"/><path d="M3 36a33 33 0 1159.89 19h3.55a35.95 35.95 0 10-61 0H9a32.89 32.89 0 01-6-19"/></svg>