<svg data-name="Layer 1" xmlns="http://www.w3.org/2000/svg" viewBox="0 0 650.35 339.78"><path d="M109 208c-5.17 0-9.22 3.62-9.22 8.9s4.07 8.87 9.22 8.87 9.22-3.61 9.22-8.87-4.04-8.9-9.22-8.9zm0 15.23a6.35 6.35 0 116.42-6.33 6.27 6.27 0 01-6.42 6.33zM198.73 176.88h-44.88l5.1-78.02-29.15 78.02H88.12L154.25.54h44.35l-5.12 79.09L223.19.54h41.68l-66.14 176.34zM204.15 176.88L270.28.54h41.68l-66.13 176.34h-41.68z"/><path d="M83.31 116.1C25.06 184.5-29.88 275.51 18.65 317.42 65.68 358 124.46 334 164.54 318s483.07-208.45 483.07-208.45c4.27-2.14 3.47-4.81-1.87-3.47-2.16.54-482.27 130.65-482.27 130.65-60.92 17.1-130.39-20.17-80.16-120.63z"/><path d="M110.58 217.52a2.22 2.22 0 002.31-2.52c0-2.3-1.51-2.88-4-2.88h-3.62v9.56h2.41v-4.07h.41l2.2 4.07H113zM109 216h-1.38v-2.22h1.17c.71 0 1.53.09 1.53 1S109.87 216 109 216zM528 0c-5.17 0-9.22 3.62-9.22 8.9s4.07 8.87 9.22 8.87 9.22-3.61 9.22-8.87S533.18 0 528 0zm0 15.23a6.21 6.21 0 01-6.42-6.33 6.42 6.42 0 0112.84 0 6.27 6.27 0 01-6.42 6.33z"/><path d="M529.58 9.52A2.22 2.22 0 00531.89 7c0-2.3-1.51-2.88-4-2.88h-3.62v9.56h2.41V9.61h.41l2.2 4.07H532zM528 8h-1.38V5.75h1.17c.71 0 1.53.09 1.53 1S528.87 8 528 8zM500.55 29.93L511.75.54H384.57l-43.68 52.9L361.05.54h-42.21l-65.6 176.34h41.68l28-73.74 1.92 73.74 127.89-.28 12.17-33.92h-48.61l16-42.75h40.08l12.33-32.86h-40.11l13.74-37.14zM366.2 165.12l-2.67-91.91L426.55 4z"/></svg>