<svg data-name="Layer 1" xmlns="http://www.w3.org/2000/svg" viewBox="0 0 865.68 732.83" width="3em" height="3em"><path d="M307 0a10.68 10.68 0 002.25 1c24.69 3.88 39.63 19 47.64 41.81 7.94 22.63 9.23 46.13 6.36 69.6-6.18 50.42-13.59 100.69-19.77 151.1-1.61 13.12-1.12 26.6-.43 39.85.27 5.33 2.83 11.05 5.82 15.65 6.05 9.31 17.56 10.15 24.6 1.55A80.1 80.1 0 00386 299.72c11.83-30.05 22.72-60.48 34.42-90.6C430.86 182.2 442.91 156 460.73 133c13.19-17 28.71-31.14 49.95-37.44 13.25-3.94 26.58-4.4 39.77.42 15.85 5.8 23.38 17.72 21.9 34.54-1.62 18.46-10 34.38-19.05 50-16.08 27.63-32.66 55-48.16 82.94-9.28 16.73-17.25 34.25-20.68 53.36-1.14 6.35-2 13 3.94 17.53s12.41 2.81 18.56.2a61.77 61.77 0 0025.12-20.13c11.8-15.68 22.7-32 33.95-48.12 9.44-13.51 18.53-27.28 28.37-40.5A83.79 83.79 0 01620 203a53.51 53.51 0 0134.71-6.62c13.32 1.82 21.1 10.18 20.65 25-.41 13.37-2.51 26.82-5.18 40-4 19.73-9.64 39.13-13.6 58.86a52.65 52.65 0 00.62 21.24c3.79 17.07 17.3 25 34 19.82 8.16-2.52 15.67-7.15 23.46-10.87 1.34-.64 2.51-1.77 3.9-2.17a3.43 3.43 0 013 .71c.48.69.08 2.13-.19 3.17-.15.57-.81 1.05-1.32 1.46C704.78 366 687.69 372 668 367.43c-15.71-3.63-24.92-15.54-26.94-33.27-2-17.53 1.51-34.5 4.58-51.55 2.92-16.21 5.93-32.41 8.66-48.65a36.53 36.53 0 00-.07-10c-1.22-11.15-8.47-17.21-19.74-16.58a31 31 0 00-22.57 11.5 301.77 301.77 0 00-21.58 29.88c-14.93 23.46-29.05 47.45-44.07 70.86a137.46 137.46 0 01-29.32 33.24c-7.23 5.81-15.07 10.36-24.36 12.09-21.1 3.95-37.85-9.54-38.36-31.06-.34-14.42 3.4-28.06 8.39-41.38 11.27-30.11 27.32-57.78 44.18-85 8.25-13.31 17-26.32 24.86-39.85 8-13.7 12.91-28.48 12.61-44.66-.25-13.58-8.24-22.15-21.81-23.12-8.06-.58-15.53 1.58-22.59 5.24-18 9.32-30.28 24.21-40.13 41.4-13.85 24.18-22.23 50.56-30.82 76.85-8.29 25.32-16.24 50.76-24.81 76-5.52 16.23-13.66 31.13-26.12 43.26-9.73 9.48-21.09 14.86-35 14.16-14.51-.73-23.82-8.49-29.35-21.29-5.75-13.32-6.48-27.54-5.9-41.73 1.45-35 8.87-69 17.05-102.84 8.5-35.17 15.92-70.53 17.89-106.79.89-16.54.14-32.87-4.36-49C330.25 6.34 295.4-.09 277 21.42c-9.66 11.35-15.23 24.58-19 38.67-6.43 24.2-7.41 49-7.34 73.89.12 42.61 5.87 84.7 11.61 126.81 3.15 23.14 5.1 46.4 2.55 69.76-1.32 12.17-4.24 23.86-10.33 34.7-14 24.86-55.88 31.35-75.07 1.79-10.27-15.82-14.49-33.53-17.25-51.72-3.28-21.66-3.47-43.49-2.56-65.34a30.27 30.27 0 011.82-9.23c1.85-4.94 5.87-7 11.09-6.78 4.91.17 7.77 3.14 9 7.38a41.09 41.09 0 011.25 10.85c.16 28.86 1.09 57.69 7.49 86 2 8.66 5.68 17 9.07 25.25 1.08 2.63 3.4 5 5.64 6.87 5.77 4.9 13 4.48 18.38-1 7.88-8 11.37-18.3 13.81-28.94 5.39-23.49 5.44-47.36 3.28-71.13-2.71-29.85-7.08-59.55-9.7-89.41-3.54-40.27-4-80.55 5.3-120.31 5.35-22.73 16.76-41.37 37.76-52.76C279.68 3.53 286.57 2.19 293 0zM0 708c7.28-12.84 13.14-14.39 26.38-6.86 5.62 3.2 11.45 5.82 18 4.12 2-.52 4.53-2.53 5-4.36.4-1.48-1.4-4.47-3-5.43-3.84-2.26-8.18-3.66-12.27-5.51-5.45-2.46-11-4.68-16.26-7.6-21.47-12-16.55-41.23 1.36-50.48 16.4-8.46 32.83-7.36 48.59 2 5.29 3.14 8.53 8 8 14.54-.75 8.76-8.7 13.79-16.91 10.67-3-1.12-5.77-2.6-8.69-3.8a45.19 45.19 0 00-6.6-2.28c-5.42-1.3-10 .09-10.88 3.47-1.47 5.53 3.21 6.75 6.66 8.34 7.1 3.26 14.57 5.78 21.56 9.25 11.52 5.73 18.48 14.52 17.06 28.28-1.36 13.23-8.81 21.81-20.81 26.25C40.25 734.85 24 732.46 9 722.74c-3.59-2.33-6-6.45-9-9.74zM334.29 463.22c0-11.34-.09-21.62 0-31.91.1-8.57 5.71-14.76 13.45-15.15 8.8-.44 15.08 5.39 15.21 14.72.2 15 .08 30 .08 44.95v65.93c0 11.12-7.26 18-17.31 15.71-3.89-.88-7.27-4-11.65-6.56a32.4 32.4 0 01-19.56 8c-18.71.89-34.45-9.2-41.8-28-7.78-19.91-5.85-39.31 6.1-57.15 11.19-16.76 31.77-21.87 49.92-13.19zm.84 44c-1.44-5-2.31-9.74-4.2-14.07a15.62 15.62 0 00-14.46-9.82c-6.59-.26-11.59 2.87-14.81 8.45-6.15 10.68-6.35 21.67.09 32.19 7.24 11.86 22.86 11 28.85-1.55 2.23-4.7 3.04-10.06 4.53-15.21zM693.08 465.64c18-16.26 47.92-10.59 60.42 14.82 10.87 22.12 7.36 50.52-8.81 66.56-12.79 12.67-30.33 15.49-46.46 7.46-1-.51-2.08-1-3.89-1.79-.22 1.95-.53 3.46-.54 5-.06 7.33 0 14.66-.06 22-.1 9.72-5.6 16-14 16.15-8.86.16-14.67-5.74-14.74-15.84q-.22-53.46 0-106.94c0-7.41 3.59-12.71 9.21-14.62 6.52-2.21 12.54-.11 17.45 6.08a9.74 9.74 0 001.42 1.12zm38.84 42.8c-1.81-5.74-2.93-11.15-5.22-16a15.11 15.11 0 00-14.86-9.11 16.12 16.12 0 00-14.7 9.58c-5.17 10.64-4.78 21.4 1.39 31.45 6.52 10.61 20.71 10.79 27.27.2 2.96-4.78 4.12-10.66 6.12-16.12zM708.21 689.59c1.81 6.87 5.35 11.19 11 13.67 8.25 3.62 16.55 3.29 24.67-.52 3.91-1.84 7.63-4.1 11.54-6 6.36-3 11.93-1.63 15.87 3.81 3.69 5.11 3.38 11-1.17 16-6.06 6.6-13.91 10.25-22.38 12.53-19.37 5.19-38 4.31-53.51-9.86-17.06-15.63-20-35.75-13.84-57 5.85-20.11 19.68-32.45 40.86-35.5 28.42-4.09 56.86 22.77 54.65 51.43-.59 7.54-4.89 11.27-13.63 11.33-16 .12-32 .06-48 .07zm36.92-21.07c-.13-9.57-7.72-16.72-17.55-17-10.42-.26-18.84 7-19.3 17zM617.7 465.17c3.67-2.55 6.58-5.71 10.13-6.82 10.21-3.18 17.64 2.75 17.78 13.9.19 15.66 0 31.31.06 47 0 7.66.05 15.32 0 23-.06 8.52-2.92 13.31-8.9 15.09-7.29 2.18-12.58.1-17.5-6.84a5.11 5.11 0 00-.92-.78 5.82 5.82 0 00-1.62.8c-14.38 14-40 9.51-52.92-5.06-17.51-19.66-17.32-55.75.61-75 15.15-16.37 34.63-18.17 53.28-5.29zm-38 42.9c0 6.39 1.42 12.46 5.53 17.65 7.16 9 19.73 8.72 26.46-.6s6.57-26.12-.53-35.29c-6.77-8.74-19-8.81-25.77-.09-4.14 5.34-5.69 11.54-5.66 18.33zM800.14 518.25c2.09 7.78 6.65 11.77 13 13.79a27 27 0 0020-1.19c4.24-2 8.27-4.33 12.49-6.3 5.9-2.76 11.24-1.44 15.16 3.51 3.64 4.59 3.68 10.18-.29 15.17-5.88 7.41-14.22 10.89-23 13.19-18.9 4.94-37 3.91-51.92-10.26C769.29 530.62 766.47 511 773 490.4c6.25-19.91 20.39-31.53 41.53-33.78 22.79-2.43 46.41 16.52 50.34 40.29.19 1.15.37 2.3.52 3.45 1.65 12.41-2.72 17.55-15.07 17.59h-44c-1.82.05-3.6.18-6.18.3zm-.06-21h35.42c-1.31-9.86-8.75-16.37-18-16.21a17.63 17.63 0 00-17.42 16.17zM119.59 549.61a5.14 5.14 0 00-1.31.36c-23.51 16.62-51.67 8.41-62.1-18.85-8.09-21.17-6.31-41.77 8.54-59.76 10-12.07 23.32-17.22 38.85-13.8 5.61 1.24 10.71 4.84 16.52 7.59 3.13-5.72 8.66-8.19 15.86-7.21 4.82.65 8 3.21 9.35 7.79a30.73 30.73 0 011.29 8.34c.11 21.83.08 43.66.07 65.49a45.76 45.76 0 01-.33 6c-.75 5.87-3.12 10.62-9.45 12.07-7.26 1.67-12.12-.39-16.23-6.64-.27-.44-.65-.81-1.06-1.38zm1.35-41.61c-2.11-6.21-3.27-12.4-6.19-17.6-6.72-12-22.88-12.26-30.74-1-6.89 9.92-7.12 25.87-.5 36 7.69 11.76 23.89 12 31.11-.05 3.05-5.04 4.2-11.27 6.32-17.35zM598.84 669.77c0 7.5.08 15 0 22.49-.3 22.89-14 37.3-38.61 39.24a79.91 79.91 0 01-23.71-2c-17.07-3.89-27.86-18-28.06-35.57-.19-16.66-.11-33.32 0-50 .05-9.94 6.19-16.66 14.88-16.58s14.48 6.74 14.51 16.83v46c0 8.78 4.27 14.37 12 16.2 10.32 2.45 19.35-4.37 19.44-15 .14-15 0-30 .08-45a36.21 36.21 0 01.83-7.91 14.31 14.31 0 0127.75-.66 31.06 31.06 0 01.92 7.88c.04 8.08-.03 16.08-.03 24.08zM327 668.46c0 9.65.56 19.35-.13 29-1.13 15.71-9.69 26.42-24.61 31.31-14.5 4.76-29.22 4.79-43.44-1.31s-21.16-17.56-21.59-32.61c-.5-17.15-.22-34.32-.09-51.48.06-9.45 5.92-15.75 14.36-15.94s14.89 6.36 15 15.94c.21 15.33 0 30.65.1 46a26.15 26.15 0 00.66 6.92c1.84 6.63 7.85 10.68 15.21 10.59s13.13-4.41 14.81-11.12a29.69 29.69 0 00.72-6.92c.06-13.83 0-27.65 0-41.48a58.18 58.18 0 01.23-7 14.49 14.49 0 0114.25-12.88c7.56-.08 13.82 4.86 14.3 12.56.59 9.46.14 19 .14 28.46zM194.48 464.37c8.78-7.23 19.14-8.92 30.3-7.34 17.18 2.44 29.26 15 29.77 32.32.53 18 .36 36 .15 54-.1 8.89-6.25 14.71-14.44 14.57-8.37-.15-14-5.77-14.15-14.83-.23-15.15 0-30.32-.2-45.47-.19-12.38-9.37-19.37-20.19-15.73-6.17 2.08-9.81 7.46-9.87 15.24-.12 14 0 28-.06 42a39.67 39.67 0 01-.26 6c-1.31 8.57-7.16 13.31-15.58 12.79-7.44-.46-12.76-6.27-12.86-14.53-.15-12.49-.05-25-.06-37.48v-32c0-7.86 3.18-13.17 8.93-15.3 6.22-2.3 11.88-.58 17.29 5.22a5.36 5.36 0 001.23.54zM825.51 731.79c-11.6-.13-22.41-3-31.87-9.89-4.6-3.36-8.11-7.66-6.78-13.94 1.92-9.08 9.72-13.3 18.72-10.05 3.42 1.23 6.44 3.67 9.9 4.68a65.38 65.38 0 0014.9 2.66c1.73.09 4.8-2.44 5.09-4.13s-1.63-4.6-3.38-5.78c-3-2-6.6-3.09-9.94-4.6-5.91-2.66-12-5-17.69-8.09-21.23-11.65-17.36-38.73-1.46-49.49 13.79-9.33 38.89-8.85 52 1.43 4.27 3.35 7.07 7.41 6.83 13.17-.38 8.94-8.48 14.53-16.81 11.38-3.42-1.3-6.71-2.95-10.11-4.3a28 28 0 00-6.18-1.92c-4-.59-8.6-1-10.15 3.84s2.89 6.24 6.1 7.7c7.57 3.45 15.46 6.22 22.89 9.93 8.33 4.17 14.76 10.32 16.3 20.17a30.07 30.07 0 01-14.52 31.06c-6.88 4.18-14.35 6.09-23.84 6.17zM412 559a50.71 50.71 0 01-28.09-9.62c-6.39-4.66-8.32-10.18-6.07-15.92 2.94-7.54 10-10.64 18-7.63 3.41 1.27 6.41 3.7 9.85 4.79a48.09 48.09 0 0013 2.4c1.87.06 5-2.11 5.38-3.79s-1.51-4.68-3.24-5.71c-3.82-2.28-8.19-3.65-12.3-5.45-4.27-1.87-8.63-3.56-12.72-5.76-10.95-5.91-17.06-14.77-15.58-27.67 1.44-12.48 8.5-20.94 20-25.18 13.86-5.1 27.56-3.75 40.54 3.32 5.93 3.23 9.8 8 9.21 15.29-.68 8.56-8.37 13.6-16.39 10.58-4.2-1.59-8.19-3.82-12.47-5.09a21.87 21.87 0 00-9.21-.6c-1.48.22-3.36 2.37-3.73 3.95-.3 1.27 1 3.57 2.3 4.43a57.52 57.52 0 008.48 4.17c6.66 3 13.61 5.55 20 9.12 20.63 11.61 15.41 38.08.54 47.44-7.73 4.85-16.11 6.93-27.5 6.93zM386.88 732.83c-20.55-1.11-37.31-12.39-45-31.2-10.62-26-1.84-55.47 21-68.79 15.93-9.28 32.55-8.39 48.81-.69 8 3.8 10.53 10.35 8 17.62-2.64 7.46-8 10.31-15.67 8.14-3.68-1-7.23-2.56-10.92-3.52-9.17-2.38-17.78 1.06-22.14 9.26-5.36 10.08-5.58 20.45 0 30.57 4.87 8.89 13.74 12.28 23.4 9.25 3-1 5.93-2.18 8.92-3.2 6.11-2.07 11.72-.37 15 4.47 3.59 5.3 3.34 11.82-1.35 16.45a26.28 26.28 0 01-9.43 6.28c-6.74 2.29-13.75 3.63-20.62 5.36zM511 559.62c-25.15-.68-44.39-18.74-47.46-45.13-2.81-24.18 10.07-47.15 31-55 14.06-5.23 27.87-3.75 41.16 2.67 6.27 3 8.75 8 8.07 14.15-1 8.76-7.88 13.5-16.36 11.06-3.19-.92-6.24-2.35-9.44-3.24-10.71-3-20.17 1.94-23.9 12.48a31 31 0 00.47 22.91c4.27 10.25 13.29 14.65 23.87 11.47 3-.9 6-2.13 9-3.09 5.72-1.82 10.86-.22 14.19 4.32 3.14 4.29 3.68 10.93-.18 14.82a38.93 38.93 0 01-13 8.66c-5.53 2.19-11.63 2.7-17.42 3.92zM103.24 628c0-4.88-.17-9.67 0-14.44.39-9.17 5.78-15.07 13.78-15.4 8.86-.36 14.95 5.23 15.59 14.49a103.29 103.29 0 01.12 11c-.13 3.2.6 5.15 4.36 4.84a22.15 22.15 0 015 .55c7.35 1.16 11 5.57 10.89 13-.13 7.14-4.42 11.78-11.61 12.59-8.56 1-8.55 1-8.55 9.67 0 16.65.06 33.29-.05 49.94 0 8.72-4.16 14.36-11.33 16.16a14 14 0 01-17.16-9.87 33.65 33.65 0 01-1-8.38c-.09-17.47-.14-34.95 0-52.43 0-3.61-1-4.9-4.75-5.09-8.28-.41-12.37-4.72-12.57-12.46s3.88-12.33 11.72-13.5c1.63-.24 3.32-.41 5.56-.67zM447.39 686.94c0-9.16-.11-18.31.06-27.47.06-3.31-.86-4.69-4.44-4.83-8.37-.34-12.7-4.61-12.93-12.06-.25-7.85 3.79-13.08 11.91-13.75 4.88-.41 5.57-2.49 5.45-6.58a64 64 0 01.78-12.9c1.21-6.86 6.53-11.07 13.29-11.22 7.53-.16 13.22 3.7 14.61 10.85a65 65 0 01.69 13.89c-.09 3.83.65 6.15 5.15 5.59a15.88 15.88 0 014.45.5c7.46 1.24 10.76 5.37 10.57 13.19-.16 7-4.17 11.47-11.14 12.43-8.95 1.23-9 1.23-9 10.46v46.94a38.36 38.36 0 01-.46 6.95 14.39 14.39 0 01-28.16.87 32.24 32.24 0 01-.84-7.4c-.1-8.49 0-17 0-25.46zM6.86 487.05c0-18.64-.1-37.28 0-55.91.07-9.71 6.8-15.82 16-14.94 7.41.72 12.43 6.64 12.65 15.41.21 8 .09 16 .1 24v80.87c0 2.5.09 5-.14 7.49-.84 8.86-6.66 14.18-15.09 13.94C12.42 557.63 7 551.79 6.9 543c-.13-14.14 0-28.29 0-42.43q-.03-6.79-.04-13.52zM194.61 634.89c5-2.48 9.48-5.66 14.41-6.9 11-2.79 19.8 6 18.06 17.27-.69 4.51-3.73 6.85-7.56 8.53l-13.72 6c-7.85 3.42-10.86 9.39-10.59 17.92.41 12.47.31 25 0 37.45-.32 11.31-8.56 17.82-18.41 15.12-6.49-1.78-10.62-7-10.66-14.56q-.19-37.22 0-74.43c0-6.6 4.07-11.37 10.3-13.12 7.13-2 13.45 0 17.24 5.46.44.63.94 1.27.93 1.26zM643.58 634.79c5.08-2.48 9.54-5.67 14.48-6.86 11.2-2.72 20.51 6.74 17.55 17.9-.83 3.1-4.39 6-7.41 7.86-4.81 2.89-10.29 4.61-15.35 7.12-5.93 2.94-8.66 7.85-8.61 14.55.11 13.15 0 26.29-.07 39.44-.06 6.63-2.43 12.17-8.89 14.9-10 4.24-20-2.61-20.25-14.13-.28-12.81-.09-25.63-.08-38.44q0-16.47.06-33c0-9 3-13.71 9.91-15.89 7.55-2.32 14.08.05 18.66 6.55z"/></svg>