<svg xmlns="http://www.w3.org/2000/svg" viewBox="0 0 476.6 218.6"><path d="M276 58.4c-6-3.1-19.8-9.1-35.3-9.2-11-.1-18.6 2.3-23.9 4.4-4.7 1.9-9.7 5.1-12.5 8.3-2.4 2.7-3.4 5.6-3.4 5.6h.1s.1 0 .3-.1c1.5-.3 7.6-1.7 12.1.1C217.2 69 222 71.6 226 79c2.5 4.6 5.6 12.3 5.7 12.3v-.2c0 .1.1.2.1.2s-.1-.3-.2-.8c-.3-2.4-.9-9 3.7-13.7 5-5 15.6-2.1 15.7-2.1v-.1s-.2-.2-.4-.6c-1.2-1.8-4.8-7.5-3.8-11.9.8-3.3 2.5-5.5 5.4-6.6 4.4-1.8 9.7-.5 12.3.1l.6.1c4.4 1 14.2 4.4 14.3 4.4 0 0-.1 0-.2-.1.1 0 .2.1.2.1l-3.4-1.7zM224 39.4l.1-.1c.1 0 6.1-4.4 13.8-7 4.9-1.7 12.1-3.8 24.7-5.4 15.8-2.1 31.1-.7 31.3-.7l-.1-.1h.1s-.1 0-.3-.1c-.9-.4-3.3-1.8-3.6-5.8-.3-6.2 9.5-15.7 9.6-15.8 0 0-.1 0-.1.1l.1-.1s-.6.4-1.6.9c-4.1 2.2-14.9 8-21.1 9.2-3.7.7-7.7.4-8.5-2-1-3.2 1.1-8.7 1.1-8.8h-.1v-.1s-1.3.7-3.4 2c-9.1 5.6-34 20.5-38 25.4-3.1 3.9-4 8.2-4 8.2v.2z"/><path d="M282 39.3c4.7-5.9 12.3-9.3 12.4-9.3h-.1.1s-.8-.1-2.3-.2c-5.6-.5-20.2-1.4-31.4.2-17.6 2.5-22.8 5-28.4 7.6-4.9 2.3-8.8 5-12 8.3-2.3 2.4-2.5 4.3-2.5 4.3v.1h.1c.1-.1 13.2-5.1 29.9-3.1 14.5 1.7 31.9 10.3 32.1 10.4v-.1h.1l-.3-.6c-1.1-2.3-3.9-9.7 2.3-17.6z"/><path d="M317.7 33.9c.1.3.7 1.3.7 1.3l.3.4c.2.3.4.6.8 1.1l.4.6c1.2 1.4 2.7 2.1 4.4 2.8V40s0-.1-.1-.3c-.2-1.3-1.3-6.1-1.6-10.9-.3-4.6-.3-5.4-.1-10V18h-.1l-.3.3c-1 1-4 4.1-8.2 7.4-5.8 4.6-8 5.5-8.1 5.5s.1 0 .2.1c.7.4 2.9 1.6 5.4 1.6 1.5 0 1.8 0 2.4-.2 0 0 .7-.2.9-.2l-.2.4c-.8 1.4-3.3 6.3-3.3 6.3-.1-.1-13.6-6.6-23.4 3.8-3.4 3.6-4.5 8.1-3.1 12.4 1 3 5.1 7.2 12.3 6.8 8.5-.5 12-8.5 12.2-8.9 0 0 0 .1.1.1.2.6.9 2.4.3 4.5-.7 2.6-3.1 6-6.9 7.6-4.5 1.8-10.6 3.1-22.2-1.6l-2.4-1c-3-1.2-5.7-2.4-8.8-3.2l-1.1-.3c-2.9-.9-6.6-1.9-10.9-1.9-2.6 0-5.5.4-7 3.4-.6 1.2-.8 2.3-.8 3.4 0 2.2 1 4.3 2.3 6.7 1.8 3.4 4.9 8 5.3 8.6-.1 0-.3-.1-.5-.2-1.5-.7-5.8-2.4-9.9-2.8-6-.6-8.7.3-11 3.6-1.3 1.8-2.5 6.8-1.4 11.5 1.2 5.3 3.8 9.4 7.4 11.4l3.1 1.6c0 .1-.1.2-.1.3-3.3 7.2-7.8 12.1-11.5 12.4-2.6.2-5.8-3.7-7.9-6.3-.9-1.1-1.6-1.9-2-2.2-2.8-1.8-5.4.8-5.5.9.3.1 1.4.5 2.6 1.4 1.9 1.6 1.4 3.4 1.3 3.6-.2-.3-1.3-1.3-4.2-.6-3.6.8-3.7 7.2-3.7 7.2h.1s0-.1.1-.1c.4-.4 1.4-1.5 2.5-2.4 3.1-2.3 7.8 2.7 8 3-.5.1-.9.3-1.3.4-3.9 1.6-5.3 5.6-5.3 5.6h.1s.2-.1.6-.2c2.3-.6 11.4-3.1 23.5-2.9 6.8.1 14.1 2.1 14.2 2.1v-.1s-.1-.1-.2-.4c-.6-1-2.4-3.4-4-4.4-1.9-1.1-8.9-1.9-9.6-2 .1-.1.4-.2.7-.3 2-1 7.4-3.7 9.2-5 2.1-1.4 3.3-2.3 4.6-4.1 1.6-2.1 2-4.6 2-4.6s1 .1 1.7 1c1.1 1.2 1.2 2.8 1.2 3.1v-.1.1s.1-.2.2-.6c.4-1.3.9-4.7-.8-8-1.3-2.4-3-3.5-4.6-4.5-1.2-.7-2.2-1.4-2.8-2.5-1.4-2.5-.4-5.6 2.3-7.5 1.7-1.1 4.1-2.3 4.2-2.3 0 0 3.9 6.7 11.5 11.2 7.6 4.5 17.8 4.2 17.9 4.2 0 0 3 2.3 3.3 6.4.2 2.9-.8 6.1-2.7 8.4-1.1 1.3-2.4 2.1-3.7 2.2-2.6.2-5.8-3.7-7.9-6.3-.9-1.1-1.6-1.9-2-2.2-2.8-1.8-5.4.8-5.5.9.3.1 1.4.5 2.6 1.4 1.9 1.6 1.4 3.4 1.3 3.6-.2-.3-1.3-1.3-4.2-.6-3.6.8-3.7 7.2-3.7 7.2s0-.1.1-.1c.4-.4 1.4-1.5 2.5-2.4 3.1-2.3 7.8 2.7 8 3-.5.1-.9.3-1.3.4-3.9 1.6-5.3 5.6-5.3 5.6h.1s.2-.1.6-.2c2.3-.6 11.4-3.1 23.5-2.9 6.8.1 14.1 2.1 14.2 2.1v-.1s-.1-.1-.2-.4c-.6-1-2.4-3.5-4-4.4-1.9-1.1-9.1-1.9-9.6-2 .1-.1.3-.2.5-.4 1.6-1.3 5.9-5.6 6.7-11.3.1-.4.1-.8.1-1.1 0-3.4-2-6.6-2.1-6.8.1 0 .1 0 .2.1.8.2 3.6 1 5.5 2.2 1.7 1.1 2.9 2.4 2.9 2.4v-.1s0-.2-.1-.5c-.2-1.3-1.2-4.7-6.3-7.2-2.2-1.1-13.1-6.6-17.3-12.5.1 0 .3 0 .6.1 1.8.3 7.4 1.1 11.7.9 6.2-.4 10.4-1.6 14.2-4 4.3-2.7 7.3-6.4 9.1-10.9 1.4-3.7 2.1-7 2.1-10.3 0-2.6-.4-5.3-1.3-8.2-1.8-6.3-7.5-11.2-7.6-11.3.1.2 2.8-6.7 2.9-6.9zm-28.2 54.6c.1.1.2.2.4.3-.1-.1-.2-.2-.4-.3zM301 54.7c-1.8.6-3.7.6-5.1-.1-.9-.4-1.6-1.1-1.9-2-.3-1-.2-2.1.4-3.2.8-1.4 2.1-2.4 3.8-2.8 4.8-1.1 8.2 2.8 8.2 2.8s-2.3 4.2-5.4 5.3zM322.6 18s-.1 0 0 0c-.1 0-.1 0 0 0-.1 0 0 0 0 0zm-16.5 13.2h0zm-83.9 83.4v.1c-.1 0-.1-.1 0-.1zm39.9-4.5v-.1.1c0-.1 0-.1 0 0zm13.4 4.5v.1c-.1 0-.1-.1 0-.1zM289 88c-1.1-1-2.1-2.1-2.9-3.1h.1c.7 1 1.7 2.1 2.8 3.1z"/><path d="M208.9 105.2c1.8-3.9 1.9-7 1.9-7.1.5.1 5.1 1 9.8.2 5.1-.8 9-2.5 9.1-2.6 0-.2-5.3-18.9-14.9-24.3-7.6-4.4-17.9-.3-18.3-.2 0-.1 0-.2.1-.3.3-1.3 1.6-6.3 5.1-10.4 4.2-5 10.8-8.2 10.9-8.2h-.1c-.4-.3-1.9-1.6-.7-5.1 1.7-5.1 8.2-6.3 8.3-6.3s-.1 0-.2-.1c-.7-.6-2.8-2.4-1.9-5.9.6-2.3 2.4-4 5.5-5l.3-.1c-1.5-1.2-3.7-3.6-2.3-6.4 1.2-2.2 4.6-2.8 5.9-3 .4-.1.5-.1.5-.1-1.3-1.3-3.3-2.6-5-3.6l-1-.6c-1.1-.7-2.3-2.2-2.3-3.7 0-.8.4-1.5 1.1-2 3.7-2.4 5.5-5.9 5.5-6h-.1c-.2.1-.5.1-.8.1-1.9.2-4.3-.5-4.4-.5 0 0 0-.1.1-.2.4-.8 1.7-3.3 1.3-3.6-.1-.1-.3 0-.3.1-.8.6-3.2 1.1-6 1.6l-3.3.7c-3.9.8-6 3.1-6 3.1s-9.5-2.7-12.6-2.4c-3.1.3-5.2 4.3-5.2 4.4 0 0-5.1-.6-8.9.2-3.7.8-6.4 2.5-6.5 2.8.1.1.1.1.3.1 1.9-.6 7.4.7 7.5.7-.1.1-.3.6-.3 1.4 0 .6.1 1.3.6 2.1.8 1.3 2.9 1.7 5.2.9.9-.3 1.5-.9 2-1.5.8-.8 1.4-1.5 3.1-1.3 2.8.3 3.1 2.8 3.1 2.8-.1 0-11.6 2.9-17.4 2.2-3.6-.4-6.5-1.1-6.5-1.1.1-.1.7-1.9.7-1.9h-.1-.1c-.3.1-1.3.3-5 .1-4.5-.3-6.8-2.1-6.8-2.1v.1s0 .1.1.4c.2.9 1.2 3.5 4.1 6.2 3.7 3.4 8.5 4.8 8.5 4.8v-.1l-.1-.2c-.3-.8-1.4-3-1.5-3.2h.2c.6.2 2.7.6 5.3.9 4.9.4 7.7-.5 8-.6v.1c-.2.3-.8 1.2-1 2.8v.3c0 .9.5 1.6 1 2.4.4.7.8 1.3.8 2 0 .1 0 .3-.1.4-.1.3-.1.7-.1 1.2 0 2.2 1.3 5.1 1.3 5.1v-.1l.1-.2c.3-.7 1.1-2.9 1.1-2.9 1.1-3 2.4-4.7 2.5-4.8v.1c.2.5 1 2.7 1 2.7v-.1-.1c.1-.4.3-1.6 2-2.6 3-1.8 6.4-2 6.7-2-.1.1-.4.6-.9 1.2-3.2 4.1-13.4 17.6-16.7 24.3-1.9 3.8-2.4 8.1-2.4 11.7 0 4.1.7 7.1.7 7.3 0 0-.1 0-.2-.1-.8-.3-4.3-1.5-6.3-3.7-1.6-1.8-1.9-6.9-2.2-11.4l-.3-4.5c-.6-4.5-4.5-7.2-4.6-7.3 0 0 1-2.2 1.7-4.9.2-.6.2-1.2.2-1.8 0-1.9-.6-3.7-.6-3.9 0 0 0 .2.1.4 0-.1-.1-.2-.1-.3v-.1.1s0-.1 0 0c0 .2 0 .5-.1.7-.4 1.1-1.3 1.5-1.8 1.6-.6.1-1 .1-1 0 0-2.7-2.2-6.1-4.9-6.3-1.8-.1-4 1.4-4 1.4h.1s.1 0 .2.1c.7.3 3 1.1 3.9 2.5 1.2 1.8 1.3 7.3 1.3 8.3v.1l-.1-.1c-.5-.5-2.4-2-4-4.4-1-1.5-2.4-1.2-3.3-.7-1 .5-1.9 1.5-1.9 1.6 2-.4 2.8.6 2.8.6s1.2 3.4 3.7 5.7c2.4 2.1 3.7 4.6 2.5 9.6-1.1 4.7-7.3 6.2-7.3 6.2l.1.1c.6.6 2.8 2.6 5.3 1.9 2.7-.8 5.6-4.9 5.9-5.4 0 .1 0 .4.1.8.1 3.1.7 13.8.7 13.8.2 4.6 2.5 8 5.3 12.3l2.6 4.1c1.1 1.7 1.4 3.4 1.4 4.9 0 4-2.8 6.9-2.8 7v.1c0 .1 0 .2.1.2.4.3 1.5 0 3.4-.8 1.6-.7 2.7-1.7 3.8-2.6 1.5-1.3 3.1-2.6 5.9-3.4 4.7-1.4 7.6 1.9 7.6 2 0 0 1.6 2.3-1.7 9.9-3.3 7.4-7.9 12.4-11.6 12.7-2.6.2-5.8-3.7-7.9-6.3-.9-1.1-1.6-1.9-2-2.2-2.8-1.8-5.4.8-5.5.9.3.1 1.4.5 2.6 1.4 1.9 1.6 1.4 3.4 1.3 3.6-.2-.3-1.3-1.3-4.2-.6-3.6.8-3.7 7.2-3.7 7.2s0-.1.1-.1c.4-.4 1.4-1.5 2.5-2.4 3.1-2.3 7.8 2.7 8 3-.5.1-.9.3-1.3.4-3.9 1.6-5.3 5.6-5.3 5.6h.1s.2-.1.6-.2c2.3-.6 11.4-3.1 23.5-2.9 6.8.1 14.1 2.1 14.2 2.1v-.1s-.1-.1-.2-.4c-.6-1-2.4-3.4-4-4.4-1.9-1.1-9-1.9-9.6-2 .1-.1.3-.2.6-.4 1.9-1.2 7.2-5.1 10.1-9.2 2.9-4.1 3-9.7 3-9.9.1.1 1 .2 2.4 3 1.5 2.9 1.6 4.9 1.6 4.9v-.1.1c.7-.8 1.3-2 1.7-3zm-10-95.8s-.9 1.7-2.8 1.5c-1.7-.1-1.8-1.9-1.8-2 0 0-1.1-.6-1.3-.8h.2c.8 0 3.8-.2 3.8-.2l1.9.3c1.1.2 2.4.5 3.8.5-1.5.3-3.8.7-3.8.7zm-39.1 3.5l.2.2c-.1-.1-.2-.1-.2-.2 0 .1 0 0 0 0zm-5.7 46.5h.3-.3zm11-3c.2-.2.3-.4.3-.4 0 .1-.1.2-.3.4zm3.7 58.2v0z"/><g><path d="M8.3 211.2c-6.7-6-8.3-13.8-8.3-20.3 0-4.6 1.6-12.6 7.7-18.7 4.1-4.1 10.4-7.3 20.9-7.3 2.7 0 6.6.2 10 .8 2.6.5 4.8.9 7 1 .8.1.9.3.9.8 0 .6-.2 1.4-.3 3.8-.1 2.3-.1 6-.2 7.1-.1 1-.2 1.4-.6 1.4-.5 0-.5-.5-.5-1.4 0-2.7-1.1-5.5-2.9-7-2.4-2.1-7.7-3.9-13.7-3.9-9.1 0-13.4 2.7-15.8 5-5 4.8-6.2 10.9-6.2 17.9 0 13.1 10.1 25.1 24.8 25.1 5.2 0 9.2-.6 12-3.4 1.4-1.5 2.3-4.5 2.5-5.8.1-.8.3-1 .7-1 .3 0 .5.5.5 1s-.8 6.5-1.5 8.8c-.4 1.3-.5 1.4-1.8 2-2.7 1.1-8 1.6-12.4 1.6-10.4-.1-17.4-2.6-22.8-7.5zM200.9 211c.2 1.9.6 4.7 2.8 5.5 1.5.5 2.8.5 3.3.5.3 0 .4.1.4.3 0 .3-.5.5-1.1.5-1.1 0-6.7-.2-8.6-.3-1.2-.1-1.4-.3-1.4-.5s.1-.3.4-.4c.3-.1.3-.9.2-1.9l-2.5-26.6h-.2l-12.6 26.8c-1.1 2.3-1.2 2.7-1.7 2.7-.4 0-.6-.5-1.6-2.4-1.3-2.5-5.8-11.4-6-11.9-.5-.9-6.2-13.3-6.8-14.7h-.2l-2.1 23.9c-.1.8-.1 1.8-.1 2.6s.6 1.4 1.3 1.6c.9.2 1.6.3 2 .3.2 0 .4.1.4.3 0 .4-.3.5-.9.5-1.9 0-4.4-.2-4.8-.2-.5 0-2.9.2-4.3.2-.5 0-.9-.1-.9-.5 0-.2.3-.3.5-.3.4 0 .8 0 1.5-.2 1.7-.3 1.9-2.3 2.1-4.3l3.7-33.6c.1-.6.3-.9.6-.9s.5.2.8.8l15.8 32.4 15.1-32.3c.2-.5.4-.8.8-.8s.5.4.6 1.4l3.5 31.5zM251.7 180.9c0-.3.2-.5.6-.6.8-.2 1.9-.3 2.5-.3 5 0 7 4.6 7 8.9 0 2.1-.8 4-1.9 5.2-1.1 1.2-1.8 1.3-4.7 1.3-1.9 0-2.8-.2-3.1-.2-.3-.1-.4-.2-.4-.6v-13.7zm-4.1 21.8c0 4.9 0 9-.3 11.2-.2 1.5-.5 2.6-1.5 2.8-.5.1-1.1.2-1.5.2-.3 0-.4.2-.4.3 0 .3.3.4.8.4 1.5 0 4.8-.2 5-.2.4 0 5.7.3 6.8.3 8.8 0 13.1-5.7 13.1-11.2 0-6-5.1-9.7-8.9-10.9 2.4-2.5 4.8-5 4.8-9.3 0-2.6-1.9-7.7-10.3-7.7-2.4 0-4.4.2-5.6.2-.3 0-3.5-.2-5.8-.2-.6 0-.8.1-.8.4 0 .2.2.3.4.3.5 0 1.3 0 1.8.2 1.7.4 2.1 1.2 2.2 2.9.1 1.6.1 3.1.1 11.1v9.2zm4.1-5.4c0-.3.1-.4.3-.4.8 0 3.3 0 4 .1 1.2.2 2.5.3 4.3 1.5 4 2.7 5 7.2 5 10.3 0 5.8-4.5 7.3-7.3 7.3-.9 0-3.1-.1-4.5-.8-1.6-.8-1.6-1.5-1.8-4-.1-.8-.1-7.2-.1-11.1v-2.9zM318 181.3c0-.3.2-.5.4-.6.5-.2 1.9-.3 3.5-.3 5.5 0 8.9 3.9 8.9 10.3 0 3.9-1.3 6.7-3.1 7.9-1.2.8-2.6 1-3.9 1-2.3 0-4.6-.4-5.4-.8-.3-.2-.4-.4-.4-.6v-16.9zm-4.1 21.4c0 4.9 0 9-.3 11.2-.2 1.5-.5 2.6-1.5 2.8-.5.1-1.1.2-1.5.2-.3 0-.4.2-.4.3 0 .3.3.4.8.4 1.5 0 4.8-.2 4.8-.2.3 0 3.5.2 6.3.2.6 0 .8-.2.8-.4s-.1-.3-.4-.3c-.5 0-1.6-.1-2.3-.2-1.5-.2-1.9-1.3-2-2.8-.3-2.2-.3-6.2-.3-11.2v-1.2c0-.3.1-.4.4-.4l6.3.1c.3 0 .5.1.7.3 1 1.3 3.5 4.8 5.6 7.6 2.9 3.9 4.7 6.4 7 7.6 1.3.7 2.6 1 5.5 1h3.7c.9 0 1.2-.1 1.2-.4 0-.2-.2-.3-.5-.3s-1 0-2-.2c-1.3-.2-3.5-.8-6.3-3.7-3-3.2-6.5-7.8-10.7-13.2 4.6-4.3 6.2-8.1 6.2-11.9 0-3.6-2.3-6.1-3.6-7-2.7-2-6.2-2.3-9.4-2.3-1.6 0-5.5.2-6.1.2-.3 0-3.5-.2-5.8-.2-.6 0-.8.1-.8.4 0 .2.2.3.4.3.5 0 1.3 0 1.8.2 1.7.4 2.1 1.2 2.2 2.9.1 1.6.1 3.1.1 11.1v9.1zM387.9 202.7c0 4.9 0 9 .3 11.2.2 1.5.5 2.6 2 2.8.7.1 1.9.2 2.3.2.3 0 .4.2.4.3 0 .3-.3.4-.8.4-2.8 0-6.1-.2-6.3-.2-.3 0-3.5.2-5 .2-.6 0-.8-.1-.8-.4 0-.2.1-.3.4-.3.5 0 1.1-.1 1.5-.2 1-.2 1.3-1.3 1.5-2.8.3-2.2.3-6.2.3-11.2v-9.1c0-8 0-9.5-.1-11.1-.1-1.8-.6-2.6-1.7-2.9-.6-.2-1.2-.2-1.6-.2-.2 0-.4-.1-.4-.3 0-.3.3-.4.8-.4 1.7 0 4.9.2 5.2.2.3 0 3.5-.2 5-.2.6 0 .8.1.8.4 0 .2-.2.3-.4.3-.4 0-.7 0-1.3.2-1.4.3-1.8 1.1-1.9 2.9-.1 1.6-.1 3.1-.1 11.1v9.1zM465.3 216.9c-.5 0-1.3 0-2.1-.3-1.1-.3-2.6-1.1-4.4-5.7-3.1-7.8-11.2-29.1-12-31.1-.6-1.6-.8-1.9-1.1-1.9-.3 0-.5.3-1.1 2l-11.7 32c-.9 2.6-2 4.5-4.3 4.8-.4.1-1.1.1-1.5.1-.3 0-.5.1-.5.3 0 .3.3.4 1 .4 2.4 0 5.3-.2 5.8-.2.6 0 2.8.2 4 .2.5 0 .8-.1.8-.4 0-.2-.2-.3-.5-.3h-.5c-.9 0-2-.5-2-1.5 0-.9.3-2.2.7-3.5l1.9-5.7.1-.1c.1 0 .3-.1.3-.1H452s.2 0 .2.1c.1 0 .2.3.2.3l3.3 8.8c.3.8 0 1.3-.3 1.4-.2.1-.4.2-.4.4 0 .3.6.3 1.5.4 3.6.1 7.3.1 8.1.1.6 0 1-.1 1-.4.2-.1 0-.1-.3-.1zm-25.4-16.7l4.5-13.9c.3-.8.5-.8.8 0l4.9 13.9c.1.2.1.4-.2.4h-9.8c-.2 0-.3-.1-.2-.4zm11.6 4c0 .1-.2.1-.2.1h-12.6s-.1 0-.2-.1v-.1l.4-1.2c.1-.3.3-.4.5-.4h11.1c.3 0 .4.1.5.3l.5 1.3v.1zM122.6 216.9c-.5 0-1.3 0-2.1-.3-1.1-.3-2.6-1.1-4.4-5.7-3.1-7.8-11.2-29.1-12-31.1-.6-1.6-.8-1.9-1.1-1.9-.3 0-.5.3-1.1 2l-11.7 32c-.9 2.6-2 4.5-4.3 4.8-.4.1-1.1.1-1.5.1-.3 0-.5.1-.5.3 0 .3.3.4 1 .4 2.4 0 5.3-.2 5.8-.2.6 0 2.8.2 4 .2.5 0 .8-.1.8-.4 0-.2-.2-.3-.5-.3h-.5c-.9 0-2-.5-2-1.5 0-.9.3-2.2.7-3.5l1.9-5.6.1-.1c.1 0 .3-.1.3-.1h13.9s.2 0 .2.1c.1 0 .1.2.2.3l3.4 8.9c.3.8 0 1.3-.3 1.4-.2.1-.4.2-.4.4 0 .3.6.3 1.5.4 3.6.1 7.3.1 8.1.1.6 0 1-.1 1-.4 0-.3-.2-.3-.5-.3zm-25.4-16.7l4.5-13.9c.3-.8.5-.8.8 0l4.9 13.9c.1.2.1.4-.2.4h-9.8c-.2 0-.3-.1-.2-.4zm11.6 4c0 .1-.2.1-.2.1H96s-.1 0-.2-.1v-.2l.4-1.2c.1-.3.3-.4.5-.4h11.1c.3 0 .4.1.5.3l.5 1.3v.2zM471.7 180c-2.5 0-4.4-2.1-4.4-4.5 0-2.5 1.9-4.5 4.4-4.5 2.4 0 4.3 2 4.3 4.5s-2 4.5-4.3 4.5zm-.1.6c2.8 0 5-2.3 5-5 0-2.8-2.3-5.1-5-5.1-2.8 0-5 2.2-5 5.1 0 2.7 2.2 5 5 5zm-1.5-4.5v1.6c0 .4-.1.4-.6.4-.1 0-.1 0-.1.1 0 0 0 .1.1.1H471.3c.1 0 .1 0 .1-.1s-.1-.1-.1-.1c-.1 0-.4 0-.5-.1-.1-.1-.1-.2-.1-1.4v-.6h1c.2.2.5.7.8 1.1.4.6.7.9 1 1.1.2.1.6.1.9.1h.2c.1 0 .2 0 .2-.1s0-.1-.1-.1c-.3 0-.6-.3-.8-.5-.4-.5-.9-1.2-1.5-1.9.7-.7.9-1.2.9-1.7s-.3-.8-.5-1c-.2-.1-.5-.3-1.4-.3h-.9H469.6c-.1 0-.2 0-.2.1s0 .1.1.1c.4 0 .6.1.6.4v2.8zm.7-3.1c.1-.1.4-.1.5-.1.8 0 1.3.6 1.3 1.4 0 .6-.2.9-.5 1.1-.2.1-.3.1-.5.1-.3 0-.6-.1-.8-.1V173z"/></g></svg>