<svg id="bwwLogo" xmlns="http://www.w3.org/2000/svg" viewBox="0 0 296.14 137"><title>client-logo-bww.inline</title><path d="M68.5,0A68.5,68.5,0,1,0,137,68.5,68.5,68.5,0,0,0,68.5,0Zm0,130.23A61.73,61.73,0,1,1,130.23,68.5,61.73,61.73,0,0,1,68.5,130.23ZM69.74,18C61.2,22.39,60.8,29.13,60.8,29.13a29.2,29.2,0,0,1,8.72-1.65,25.85,25.85,0,0,1-5.87,6.21s5.79,0,9.8,1.6c-2.53,2.3-7.13,2.93-7.13,2.93s1.59,1.39,3,5.52a15.26,15.26,0,0,1-6.91-1.46,24.88,24.88,0,0,1-1.95,10.64,12.18,12.18,0,0,0,3.9-7.63c3,1.4,8.14.52,8.14.52S71.78,42,70.22,40c4.46-.69,9.74-5.39,9.74-5.39a22.85,22.85,0,0,0-10-2.95C72.23,29.84,74.63,25,74.63,25s-5.9-.65-9.53.81c6.31-8.44,21.57-5,24.94-2.89-3.2.3-8.4,2.65-9.82,4.3,12.12-1,23.89,9.71,27.62,17.36-6.38-2.39-18.51,2.83-28.42,1.7A17.43,17.43,0,0,1,86.17,53c-4.1.91-11,1.06-14.81,0a30.21,30.21,0,0,1,1.94,7.41c-4.6.22-14.27-3.14-17.78-7.44C60.71,40.5,51.16,37,50.82,30.67,50.6,26.34,56.5,19.69,69.74,18Zm37.94,73.61a1.39,1.39,0,0,0-.74-1.71c-2.76-.81-4.72-4.3-3.93-8.9s2.33-12.1-.72-15.89c0,0-12.12-6-23.42-11.49a28.57,28.57,0,0,1-7.49-.73,30.21,30.21,0,0,1,1.94,7.41c-4.6.22-14.27-3.14-17.78-7.44,1.62-3.86,1.8-6.86,1.28-9.34C49.12,42,39.25,45.47,37.35,53.9c-4.32-3.16-14.29-3.4-18.3,3.92C15.8,63.75,18,74.49,18.58,77.33c.56,2.59,1.17,4.57,2.13,5.65s2.9,1.53,4.77,1.72c1.17,5.57,7.11,5.43,5.46,10.41,2.75-1,3.67-4.94,2.51-7.49A2.92,2.92,0,0,1,35.87,91v0a2.74,2.74,0,0,1-.09.39C39.1,90.7,38.09,85.77,40,85c1,7.38,8.34,9.83,6.25,15,1.59,0,3.55-1.08,3.6-2.84,0,0,2.87,4.6,2,7l-3.44,5.08h9.34l1.05-4.34s-2.18-6.07-2.05-9.58a2.73,2.73,0,0,1,2.68,2.61c3.31-2.5-2-7.1-.71-10.93.68,3.39,3.86,4.11,4.19,6.86,8.18-1.82,17-8.55,22.78-8.55a16.42,16.42,0,0,0,14.08,8.8c1.73,3,2.82,8.49,2.29,9.55l-3.29,5.56h9l1.29-4C107.53,101.66,106.53,95.92,107.68,91.61ZM21.58,70.18a3,3,0,0,1,3.94-1.58l.06,0a3.1,3.1,0,0,1,.47.26A3.26,3.26,0,0,1,21.58,70.18ZM31,66.89a4,4,0,0,1-1.14.19,2.22,2.22,0,0,1-2.2-2.2,2.13,2.13,0,0,1,1.43-2c2.86-1,6.24-3.31,3.06-7.94C36.58,55.31,39.4,64.16,31,66.89ZM191.11,25c0,5.94-.39,11-9.7,11s-9.7-5.05-9.7-11V11h6.44V23.32c0,6-.1,7,3.26,7s3.26-1,3.26-7V11h6.44Zm104-3.42v3.47c0,5.95-.42,11-10.06,11s-10.09-5-10.09-10.91V21.58c0-5.94.43-10.92,10.09-10.92S295.06,15.64,295.06,21.58Zm-13.74.15v3.19c0,4.64.17,5.41,3.65,5.41s3.65-.76,3.65-5.41V21.73c0-4.69-.16-5.43-3.65-5.43S281.32,17,281.32,21.73Zm-70,64.49V41.61H223V86.22Zm-13.6,39.61V92.35h8.71v33.48Zm69.38-18.62H259c-6.38,0-6.73,6.6-6.73,6.6h6.35v1.61c-.17,2.56-1.58,3.17-4.54,3.17-4.72,0-4.94-1-4.94-7.33V107c0-6.35.22-7.35,4.94-7.35,3.29,0,4.09.64,4.29,3.91l8.4-3.09c-.85-5-3.65-8.46-12.69-8.46-13.09,0-13.66,6.74-13.66,14.78v4.7c0,8,.57,14.78,13.66,14.78,8,0,11.25-2.85,12.45-6.83C267.41,116.25,266.18,111.38,267.13,107.21ZM227.94,92.35v15.91l-7.6-15.91H209.72a12.25,12.25,0,0,1,1.35,6v27.52h8.71V110l6.74,14a2.82,2.82,0,0,0,2.95,1.79h7.18V92.35Zm54.5,12.43c-3.36-.5-4.11-1-4.11-2.45,0-1.67,1-2.74,3.48-2.74,2.8,0,3.43.42,4.42,2.94l8.24-3c-.92-5.35-4.32-7.63-12.39-7.63-9.74,0-12.46,4.06-12.46,10.34,0,6.69,3,9.48,13.4,10.91,2.47.33,3.56.91,3.56,2.72s-.76,2.75-3.6,2.75c-3.05,0-3.56-.72-4.36-3.34l-8.87,3.25c1.1,5.52,5,7.81,12.58,7.81,9.42,0,12.94-4.36,12.94-10.23C295.27,109.15,291.47,106.19,282.44,104.78Zm13.7-43.68c0-10.44-.74-19.49-18.58-19.49h-17s1.12.91,1.12,6.9V86.22h15.88c17.84,0,18.58-9,18.58-19.41Zm-11.61,6c0,7.85-.36,9-7,9H273.3V55.3a4,4,0,0,0-1.53-3.52h5.79c6.61,0,7,1.13,7,9Zm-36.65,9h-7.44V41.61H228.82V86.22h29V73.93S255.34,76.05,247.88,76.05Zm19.5-46h-4.13V11h-6.44V35.67h16.06V28.86S271.51,30,267.38,30ZM164.51,22.5c2.18-.47,3.31-1.81,3.31-5.66,0-5.32-2.95-5.91-8.5-5.91h-10.6s1.07,1.29,1.07,5.06V35.67h9.13c6.28,0,9.63-.55,9.63-6.69C168.55,24.44,167.17,23,164.51,22.5Zm-9-6.16h2.41c2.9,0,3.58,0,3.58,2,0,1.61-.48,2-2.25,2h-3V18a1.88,1.88,0,0,0-.73-1.66Zm2.08,13.94h-1.37V25h3c2.28,0,2.88.32,2.88,2.63,0,2.78-.84,2.65-4.5,2.65ZM246.29,11h-9.92a6.5,6.5,0,0,1,.37,3.57h0L230.2,35.68h6.62l1.66-5.86h7.17l1.67,5.86H254Zm-6.4,13.53L242.07,17l2.17,7.57ZM195.55,41.61,189.89,72.3,185,44.7a3.48,3.48,0,0,0-3.69-3.09H172c1.6,3-.59,6.34-5.43,30.69L161,41.61H147.13a12.5,12.5,0,0,1,3.2,5.92L158,86.22h12.55c2.37,0,3.7-2.2,4.06-4l3.65-18.88,4.44,22.91h12.62a4.25,4.25,0,0,0,3.94-3.68l8.11-40.93Zm-9.76,50.74-4.25,23-3.66-20.7a2.61,2.61,0,0,0-2.77-2.32h-7c1.2,2.24-.44,4.76-4.08,23l-4.24-23H149.47a9.38,9.38,0,0,1,2.4,4.44l5.74,29H167c1.78,0,2.78-1.65,3-3l2.74-14.17,3.33,17.19h9.47a3.19,3.19,0,0,0,3-2.77l6.09-30.7ZM215.26,11V35.68h6.44V26.36h3.38c2.41,0,3.36-1.37,4.44-5.63H221.7V16.58h7.15a4.8,4.8,0,0,1,3.05.85V11Zm-20,0V35.68h6.43V26.36H205c2.41,0,3.36-1.37,4.44-5.63h-7.83V16.58h7.15a4.8,4.8,0,0,1,3.05.85V11Z" transform="translate(0 0)"/></svg>