<svg xmlns="http://www.w3.org/2000/svg" id="Layer_1" version="1.1" viewBox="0 0 496.3 245.7"><defs><style>.st0{fill:#292929}</style></defs><path d="M23.1 115.3V23.2H6.5V5.1H64v18.1H47.5v92.1H23Zm50.8 0V5.1h24.3v110.2H73.9Zm40.3 0 1.9-110.2h26.1l12.1 64.1 13.1-64.1h25.2l1.9 110.2h-17.3l-2-73.3-12.8 73.3H147l-13.6-73.8-1.6 73.8h-17.5Zm-106 125V130.1h27.9c9.6 0 17.1 1.2 22.4 3.7 5.3 2.4 9.1 6.1 11.3 11.3 2.2 5.1 3.3 11.7 3.3 19.9v40c0 8.3-1.1 15-3.3 20.3-2.2 5.2-5.9 9-11.3 11.4-5.3 2.4-12.6 3.7-22.2 3.7H8.2Zm24.3-16.9h3.8c3.7 0 6.4-.5 8-1.6 1.6-1.1 2.6-2.7 3-4.9.5-2.2.7-4.9.7-8.2v-48c0-3.3-.3-5.9-.8-7.9s-1.5-3.4-3.1-4.4-4.3-1.4-7.9-1.4h-3.7v76.3Zm87.2 18.5c-8.4 0-15.1-1.4-19.9-4.1-4.7-2.8-8-6.8-9.9-12.1-1.9-5.3-2.9-11.9-2.9-19.6v-76h24.1v79.7c0 2.3.2 4.5.5 6.8.4 2.3 1.1 4.1 2.3 5.6 1.3 1.5 3.2 2.2 5.7 2.2s4.5-.7 5.7-2.2c1.2-1.5 1.9-3.3 2.2-5.6.4-2.3.5-4.5.5-6.8v-79.7h24.2v76c0 7.7-1 14.2-3 19.6-1.9 5.3-5.2 9.3-9.9 12.1-4.7 2.7-11.3 4.1-19.7 4.1Zm48.1-1.6V130.1h17.1l22.6 53v-53h20.1v110.2h-16.5l-22.6-57.1v57.1h-20.8Zm76.2 0V130.1h24.3v45l18.5-45h23.8l-20.4 49.8 21.4 60.4h-24.8l-15.9-48.7-2.6 4.4v44.3H244Zm77.2 0V130.1h24.3v93.7h25.3v16.5h-49.6Zm60.3 0V130.1H431v16.6h-25.2V174H425v16.9h-19.2v32.9h25.4v16.5h-49.8Zm60.8 0V130.1h49.5v16.6h-25.2V174h19.2v16.9h-19.2v32.9H492v16.5h-49.8Z" class="st0"/><path d="M212 103.4c16.8.3 52.4-4.3 60-25.5 9.5-26.5-47-14-46.5-33.5s64.5-31 91.5-27.5 11.5 32-4.5 46.5-3 43.4 28 36.9 30.5-11 37.5-46c4.9-24.6 56-23 60.5 0 0 34.5 34 16.5 34 65" style="fill:none;stroke:#292929;stroke-dasharray:12 12;stroke-width:6px"/><path d="M280.3 20.1c.4-.7.2-1.6-.5-2.1s-11.4-7.2-11.4-7.2c-.7-.4-1.6-.2-2.1.5-.4.7-.2 1.6.5 2.1l10.2 6.4-6.4 10.2c-.4.7-.2 1.6.5 2.1.7.4 1.6.2 2.1-.5l7.2-11.4Zm-14 3.6 13-3-.7-2.9-13 3 .7 2.9Zm52.2 33.2c.2.8 1 1.3 1.8 1.1l13.2-3c.8-.2 1.3-1 1.1-1.8-.2-.8-1-1.3-1.8-1.1l-11.7 2.6-2.6-11.7c-.2-.8-1-1.3-1.8-1.2-.8.2-1.3 1-1.2 1.8l3 13.2Zm7.4-12.4-7.1 11.3 2.5 1.6 7.1-11.3-2.5-1.6Zm45.5 44.3c.3-.8-.1-1.6-.9-1.9l-12.8-4.4c-.8-.3-1.6.1-1.9.9-.3.8.1 1.6.9 1.9l11.3 3.9-3.9 11.3c-.3.8.1 1.6.9 1.9.8.3 1.6-.1 1.9-.9l4.4-12.8Zm-12.7 6.7 12-5.8-1.3-2.7-12 5.8 1.3 2.7ZM431 42.6c.8-.3 1.1-1.2.8-2l-5.3-12.4c-.3-.8-1.2-1.1-2-.8-.8.3-1.1 1.2-.8 2l4.7 11-11 4.8c-.8.3-1.1 1.2-.7 2 .3.7 1.2 1.1 1.9.8l12.4-5.3Zm-13.6-4.9 12.4 4.9 1.1-2.8-12.4-4.9-1.1 2.8Z" class="st0"/></svg>