<svg version="1.1" id="Layer_1" xmlns="http://www.w3.org/2000/svg" x="0" y="0" width="489.3" height="236.8" style="enable-background:new 0 0 489.3 236.8" xml:space="preserve"><style>.st0{fill:#292929}</style><path class="st0" d="M16.6 110.2V18.1H0V0h57.5v18.1H41.1v92.1H16.6zm50.8 0V0h24.3v110.2H67.4zm40.3 0L109.6 0h26.1l12.1 64.1L160.9 0h25.2l1.9 110.2h-17.3l-2-73.3-12.8 73.3h-15.4l-13.6-73.8-1.6 73.8h-17.6zM489.3 235.2V125h-27.9c-9.6 0-17.1 1.2-22.4 3.7-5.3 2.4-9.1 6.1-11.3 11.3-2.2 5.1-3.3 11.7-3.3 19.9v40c0 8.3 1.1 15 3.3 20.3 2.2 5.2 5.9 9 11.3 11.4 5.3 2.4 12.6 3.7 22.2 3.7h28.1zM465 218.3h-3.8c-3.7 0-6.4-.5-8-1.6s-2.6-2.7-3-4.9c-.5-2.2-.7-4.9-.7-8.2v-48c0-3.3.3-5.9.8-7.9s1.5-3.4 3.1-4.4c1.6-.9 4.3-1.4 7.9-1.4h3.7v76.4zm-87.2 18.5c8.4 0 15-1.4 19.9-4.1 4.7-2.8 8-6.8 9.9-12.1 1.9-5.3 2.9-11.9 2.9-19.6v-76h-24.1v79.7c0 2.3-.2 4.5-.5 6.8-.4 2.3-1.1 4.1-2.3 5.6-1.3 1.5-3.2 2.2-5.7 2.2-2.6 0-4.5-.7-5.7-2.2-1.2-1.5-1.9-3.3-2.2-5.6-.4-2.3-.5-4.5-.5-6.8V125h-24.2v76c0 7.7 1 14.2 3 19.6 1.9 5.3 5.2 9.3 9.9 12.1 4.6 2.7 11.2 4.1 19.6 4.1zm-48.1-1.6V125h-17.1L290 178v-53h-20.1v110.2h16.5l22.6-57.1v57.1h20.7zm-76.2 0V125h-24.3v45l-18.5-45h-23.8l20.4 49.8-21.4 60.4h24.8l15.9-48.7 2.6 4.4v44.3h24.3zm-77.2 0V125H152v93.7h-25.3v16.5h49.6zm-60.3 0V125H66.5v16.6h25.2v27.3H72.5v16.9h19.2v32.9H66.2v16.5H116zm-60.8 0V125H5.7v16.6h25.2v27.3H11.7v16.9h19.2v32.9H5.4v16.5h49.8zM469 114.2h-6c0-1.7 0-3.3-.1-4.8l6-.3c.1 1.5.1 3.3.1 5.1zM207.2 101.3h-1.7l.1-6c3.5.1 7.6-.1 11.7-.5l.6 6c-3.7.3-7.4.5-10.7.5zM230 99l-1.2-5.9c4-.8 7.8-1.8 11.2-3l2 5.7c-3.7 1.3-7.8 2.3-12 3.2zM320.9 98.8c-4.6-.6-8.8-2-12.5-4.2l3.1-5.1c2.9 1.8 6.3 2.9 10.1 3.4l-.7 5.9zM333.8 98.3l-1.1-5.9c.3 0 .5-.1.8-.2 4.4-.9 7.8-1.7 10.7-2.5l1.6 5.8c-3 .8-6.5 1.7-11.1 2.6-.4.1-.7.1-.9.2zM461.3 98.1c-1-3.9-2.4-7.2-4.3-10l5-3.3c2.3 3.4 4 7.3 5.1 11.9l-5.8 1.4zM299.1 85c-2-3.6-3-7.6-3-11.5 0-.6 0-1.1.1-1.7l6 .4v1.2c0 3 .8 6 2.2 8.7l-5.3 2.9zM449.3 80.3c-1.4-1-2.8-2-4.2-2.9-1.9-1.3-3.9-2.6-5.7-4.1l3.8-4.7c1.6 1.3 3.4 2.5 5.3 3.8 1.4 1 2.9 2 4.4 3.1l-3.6 4.8zM269.3 70.3l-5.9-1.1c.1-.7.2-1.3.2-1.9 0-2.3-.9-4.1-3-5.6l3.6-4.8c3.6 2.7 5.4 6.2 5.4 10.4 0 .9-.1 2-.3 3zM370.5 68.7l-5.8-1.4c.8-3.2 1.5-6.8 2.5-11.6l5.9 1.2c-1 4.9-1.8 8.6-2.6 11.8zM305.8 62.8l-4.7-3.7c.8-1.1 1.8-2.1 2.9-3 1.9-1.7 3.8-3.6 5.6-5.7l4.5 4c-2 2.2-4 4.3-6.1 6.2-.8.6-1.5 1.4-2.2 2.2zM250.6 57.6c-2.9-.7-6.1-1.4-9.1-2l-2.5-.5 1.2-5.9 2.5.5c3.1.6 6.4 1.3 9.4 2l-1.5 5.9zM226.9 52c-6-2.2-9.4-5.3-10.5-9.6l5.8-1.5c.4 1.4 1.5 3.5 6.8 5.4l-2.1 5.7zM375.7 46l-5.4-2.7c1.9-3.9 5.1-7.2 9.4-9.8l3.1 5.2c-3.3 2-5.7 4.5-7.1 7.3zM424.4 41.8c-2.3-2.2-5.6-4-9.3-5.3l2-5.7c4.6 1.6 8.4 3.8 11.4 6.5l-4.1 4.5zM393 34.9l-1.1-5.9c3-.6 6.1-.9 9.3-.9 1.1 0 2.3 0 3.4.1l-.4 6c-1-.1-2-.1-3-.1-2.8.1-5.6.3-8.2.8zM225.3 33.2l-4.2-4.3c2.6-2.5 6.2-4.9 10.7-7.2l2.6 5.4c-3.9 2-7 4-9.1 6.1zM245.2 22.8l-1.9-5.7c3.6-1.2 7.6-2.3 11.8-3.4l1.4 5.8c-4 1.1-7.8 2.1-11.3 3.3zM321.5 21.3c-1.1-2.6-3.4-4.5-7.1-5.6l1.8-5.7c5.4 1.7 9.1 4.7 10.9 9.1l-5.6 2.2zM291.6 14.4l-.3-6c4.4-.2 8.6-.3 12.3-.2l-.2 6c-3.6-.1-7.6 0-11.8.2zM283.9 11.7l-9.2-5.4.7 3.6c-2.8.4-5.6.8-8.3 1.3l1.1 5.9c2.8-.5 5.6-.9 8.4-1.3l.6 3.1 6.7-7.2zM327 32.8l-5.7-1.7c-.8 2.7-2.1 5.5-3.8 8.5l-3-1.3 2 9.7 9.7-4.5-3.3-1.4c1.8-3.3 3.2-6.4 4.1-9.3zM368.4 84l-1.9-9.7-9.8 4.4 3.3 1.5c-1.5 2.2-3.2 4-5.6 5.4l3.1 5.1c3.4-2.1 5.9-4.6 7.9-8l3 1.3zM435.9 57.8c-.6-2.3-.9-4.8-.9-7.7l-6 .1c.1 3.5.5 6.6 1.2 9.5l-3.4 1.1 8 5.9 4.3-9.8-3.2.9zM265.1 78.2l-10.7-.1 2.2 2.6c-1.8 1.7-3.9 3.2-6.2 4.6l3.1 5.2c2.7-1.6 5-3.3 7.1-5.2l2.2 2.6 2.3-9.7z"/></svg>