<svg width="571" height="263" fill="none" xmlns="http://www.w3.org/2000/svg"><path d="M54.088 122V29.928H37.496V11.84h57.528v18.088H78.568V122h-24.48Zm50.771 0V11.84h24.344V122h-24.344Zm40.362 0 1.904-110.16h26.112l12.104 64.056 13.056-64.056h25.16L225.461 122h-17.272l-2.04-73.304L193.365 122h-15.368l-13.6-73.848L162.765 122h-17.544Z" fill="url(#a)" fill-opacity=".7"/><path d="M54.088 122V29.928H37.496V11.84h57.528v18.088H78.568V122h-24.48Zm50.771 0V11.84h24.344V122h-24.344Zm40.362 0 1.904-110.16h26.112l12.104 64.056 13.056-64.056h25.16L225.461 122h-17.272l-2.04-73.304L193.365 122h-15.368l-13.6-73.848L162.765 122h-17.544Z" fill="#000"/><path d="M526.84 247V136.84h-27.88c-9.611 0-17.091 1.224-22.44 3.672-5.349 2.357-9.112 6.12-11.288 11.288-2.176 5.077-3.264 11.696-3.264 19.856v39.984c0 8.251 1.088 15.005 3.264 20.264 2.176 5.168 5.939 8.976 11.288 11.424 5.259 2.448 12.648 3.672 22.168 3.672h28.152Zm-24.344-16.864h-3.808c-3.717 0-6.392-.544-8.024-1.632-1.632-1.088-2.629-2.72-2.992-4.896-.453-2.176-.68-4.896-.68-8.16V167.44c0-3.264.272-5.893.816-7.888.453-1.995 1.496-3.445 3.128-4.352 1.632-.907 4.261-1.36 7.888-1.36h3.672v76.296Zm-87.167 18.496c8.431 0 15.05-1.36 19.855-4.08 4.715-2.811 8.024-6.845 9.928-12.104 1.904-5.349 2.856-11.877 2.856-19.584V136.84h-24.072v79.696c0 2.267-.181 4.533-.544 6.8-.362 2.267-1.133 4.125-2.312 5.576-1.269 1.451-3.173 2.176-5.711 2.176-2.63 0-4.534-.725-5.713-2.176-1.178-1.451-1.904-3.309-2.176-5.576a43.055 43.055 0 0 1-.544-6.8V136.84h-24.208v76.024c0 7.707.998 14.235 2.992 19.584 1.904 5.259 5.214 9.293 9.928 12.104 4.715 2.72 11.288 4.08 19.721 4.08ZM367.199 247V136.84h-17.136l-22.576 53.04v-53.04h-20.128V247h16.456l22.576-57.12V247h20.808Zm-76.234 0V136.84h-24.344v45.016l-18.496-45.016h-23.8l20.4 49.776L223.373 247h24.752l15.912-48.688 2.584 4.352V247h24.344Zm-77.164 0V136.84h-24.344v93.704h-25.296V247h49.64Zm-60.297 0V136.84H104v16.592h25.16v27.336h-19.176v16.864h19.176v32.912h-25.432V247h49.776Zm-60.828 0V136.84H43.172v16.592h25.16v27.336H49.156v16.864h19.176v32.912H42.9V247h49.776Z" fill="url(#b)" fill-opacity=".7"/><path d="M526.84 247V136.84h-27.88c-9.611 0-17.091 1.224-22.44 3.672-5.349 2.357-9.112 6.12-11.288 11.288-2.176 5.077-3.264 11.696-3.264 19.856v39.984c0 8.251 1.088 15.005 3.264 20.264 2.176 5.168 5.939 8.976 11.288 11.424 5.259 2.448 12.648 3.672 22.168 3.672h28.152Zm-24.344-16.864h-3.808c-3.717 0-6.392-.544-8.024-1.632-1.632-1.088-2.629-2.72-2.992-4.896-.453-2.176-.68-4.896-.68-8.16V167.44c0-3.264.272-5.893.816-7.888.453-1.995 1.496-3.445 3.128-4.352 1.632-.907 4.261-1.36 7.888-1.36h3.672v76.296Zm-87.167 18.496c8.431 0 15.05-1.36 19.855-4.08 4.715-2.811 8.024-6.845 9.928-12.104 1.904-5.349 2.856-11.877 2.856-19.584V136.84h-24.072v79.696c0 2.267-.181 4.533-.544 6.8-.362 2.267-1.133 4.125-2.312 5.576-1.269 1.451-3.173 2.176-5.711 2.176-2.63 0-4.534-.725-5.713-2.176-1.178-1.451-1.904-3.309-2.176-5.576a43.055 43.055 0 0 1-.544-6.8V136.84h-24.208v76.024c0 7.707.998 14.235 2.992 19.584 1.904 5.259 5.214 9.293 9.928 12.104 4.715 2.72 11.288 4.08 19.721 4.08ZM367.199 247V136.84h-17.136l-22.576 53.04v-53.04h-20.128V247h16.456l22.576-57.12V247h20.808Zm-76.234 0V136.84h-24.344v45.016l-18.496-45.016h-23.8l20.4 49.776L223.373 247h24.752l15.912-48.688 2.584 4.352V247h24.344Zm-77.164 0V136.84h-24.344v93.704h-25.296V247h49.64Zm-60.297 0V136.84H104v16.592h25.16v27.336h-19.176v16.864h19.176v32.912h-25.432V247h49.776Zm-60.828 0V136.84H43.172v16.592h25.16v27.336H49.156v16.864h19.176v32.912H42.9V247h49.776Z" fill="#000"/><path d="M243 110.124c16.833.333 52.4-4.3 60-25.5 9.5-26.5-47-14-46.5-33.5s64.5-31 91.5-27.5 11.5 32-4.5 46.5-3 43.376 28 36.876S402 96 409 61c4.924-24.622 56-23 60.5 0 0 34.5 34 16.5 34 65" stroke="#000" stroke-width="6" stroke-dasharray="12 12"/><path d="M311.272 26.795a1.5 1.5 0 0 0-.477-2.067l-11.448-7.155a1.5 1.5 0 0 0-1.59 2.544l10.176 6.36-6.36 10.176a1.5 1.5 0 0 0 2.544 1.59l7.155-11.448Zm-13.935 3.667 13-3-.674-2.924-13 3 .674 2.924ZM349.537 63.61a1.5 1.5 0 0 0 1.793 1.133l13.169-2.972a1.5 1.5 0 0 0-.66-2.927l-11.706 2.642-2.642-11.706a1.5 1.5 0 1 0-2.926.66l2.972 13.17Zm7.321-12.411-7.126 11.28 2.536 1.601 7.126-11.279-2.536-1.602ZM402.414 95.49a1.5 1.5 0 0 0-.928-1.908l-12.762-4.405a1.5 1.5 0 1 0-.978 2.836l11.343 3.915-3.916 11.344a1.5 1.5 0 1 0 2.836.978l4.405-12.76Zm-12.758 6.698 11.997-5.84-1.313-2.697-11.996 5.84 1.312 2.697ZM461.991 49.307a1.5 1.5 0 0 0 .784-1.971l-5.343-12.398a1.5 1.5 0 0 0-2.755 1.188l4.749 11.02-11.02 4.75a1.5 1.5 0 0 0 1.188 2.754l12.397-5.343Zm-13.545-4.913 12.397 4.93 1.109-2.788-12.398-4.93-1.108 2.788Z" fill="#000"/><defs><linearGradient id="a" x1="126.659" y1="27.112" x2="493.796" y2="68.831" gradientUnits="userSpaceOnUse"><stop/><stop offset="1" stop-opacity=".6"/></linearGradient><linearGradient id="b" x1="444.341" y1="30.112" x2="77.204" y2="71.831" gradientUnits="userSpaceOnUse"><stop/><stop offset="1" stop-opacity=".6"/></linearGradient></defs></svg>