<?xml version="1.0" encoding="UTF-8"?>
<svg id="Layer_1" xmlns="http://www.w3.org/2000/svg" version="1.1" viewBox="0 0 496.3 245.7">
  <!-- Generator: Adobe Illustrator 29.7.1, SVG Export Plug-In . SVG Version: 2.1.1 Build 8)  -->
  <defs>
    <style>
      .st0 {
        fill: #292929;
      }

      .st1 {
        fill: none;
        stroke: #292929;
        stroke-dasharray: 12 12;
        stroke-width: 6px;
      }
    </style>
  </defs>
  <path class="st0" d="M23.1,115.3V23.2H6.5V5.1h57.5v18.1h-16.5v92.1h-24.5.1ZM73.9,115.3V5.1h24.3v110.2s-24.3,0-24.3,0ZM114.2,115.3l1.9-110.2h26.1l12.1,64.1,13.1-64.1h25.2l1.9,110.2h-17.3l-2-73.3-12.8,73.3h-15.4l-13.6-73.8-1.6,73.8h-17.6ZM8.2,240.3v-110.2h27.9c9.6,0,17.1,1.2,22.4,3.7,5.3,2.4,9.1,6.1,11.3,11.3,2.2,5.1,3.3,11.7,3.3,19.9v40c0,8.3-1.1,15-3.3,20.3-2.2,5.2-5.9,9-11.3,11.4-5.3,2.4-12.6,3.7-22.2,3.7H8.2v-.1ZM32.5,223.4h3.8c3.7,0,6.4-.5,8-1.6s2.6-2.7,3-4.9c.5-2.2.7-4.9.7-8.2v-48c0-3.3-.3-5.9-.8-7.9s-1.5-3.4-3.1-4.4-4.3-1.4-7.9-1.4h-3.7v76.4ZM119.7,241.9c-8.4,0-15.1-1.4-19.9-4.1-4.7-2.8-8-6.8-9.9-12.1s-2.9-11.9-2.9-19.6v-76h24.1v79.7c0,2.3.2,4.5.5,6.8.4,2.3,1.1,4.1,2.3,5.6,1.3,1.5,3.2,2.2,5.7,2.2s4.5-.7,5.7-2.2,1.9-3.3,2.2-5.6c.4-2.3.5-4.5.5-6.8v-79.7h24.2v76c0,7.7-1,14.2-3,19.6-1.9,5.3-5.2,9.3-9.9,12.1-4.7,2.7-11.3,4.1-19.7,4.1h.1ZM167.8,240.3v-110.2h17.1l22.6,53v-53h20.1v110.2h-16.5l-22.6-57.1v57.1h-20.8.1ZM244,240.3v-110.2h24.3v45l18.5-45h23.8l-20.4,49.8,21.4,60.4h-24.8l-15.9-48.7-2.6,4.4v44.3h-24.3ZM321.2,240.3v-110.2h24.3v93.7h25.3v16.5h-49.6,0ZM381.5,240.3v-110.2h49.5v16.6h-25.2v27.3h19.2v16.9h-19.2v32.9h25.4v16.5h-49.8.1ZM442.3,240.3v-110.2h49.5v16.6h-25.2v27.3h19.2v16.9h-19.2v32.9h25.4v16.5h-49.8.1Z"/>
  <path class="st1" d="M212,103.4c16.8.3,52.4-4.3,60-25.5,9.5-26.5-47-14-46.5-33.5s64.5-31,91.5-27.5,11.5,32-4.5,46.5-3,43.4,28,36.9,30.5-11,37.5-46c4.9-24.6,56-23,60.5,0,0,34.5,34,16.5,34,65"/>
</svg>