<svg width="1152" height="117" fill="none" xmlns="http://www.w3.org/2000/svg"><path d="m771.5 59.5 109 57H272l141.5-87 7.5 3L448.5 0 477 18.5l3-4L522.5 44l-11 12.5-34.5-27-20 24-22 6L401 97l34-26 22-7 23-29 47.5 46 29 13.5L532 75l-17.5-15.5 42-48.5 7 3.5 10-11.5L614 35l-14 24.5 38-45 65 45L689 75l-12.5-8.5-16.5 28L680.5 75l8.5 10 40-50 37 29 5.5-4.5Z" fill="#000"/><path d="m1287.5 59.5 109 57H788l141.5-87 7.5 3L964.5 0 993 18.5l3-4 42.5 29.5-11 12.5-34.5-27-20 24-22 6L917 97l34-26 22-7 23-29 47.5 46 29 13.5L1048 75l-17.5-15.5 42-48.5 7 3.5 10-11.5 40.5 32-14 24.5 38-45 65 45-14 15.5-12.5-8.5-16.5 28 20.5-19.5 8.5 10 40-50 37 29 5.5-4.5ZM247.5 59.5l109 57H-252l141.5-87 7.5 3L-75.5 0-47 18.5l3-4L-1.5 44l-11 12.5-34.5-27-20 24-22 6-34 37.5 34-26 22-7 23-29L3.5 81l29 13.5L8 75-9.5 59.5l42-48.5 7 3.5L49.5 3 90 35 76 59.5l38-45 65 45L165 75l-12.5-8.5-16.5 28L156.5 75l8.5 10 40-50 37 29 5.5-4.5Z" fill="#000"/></svg>