<?xml version="1.0" encoding="utf-8"?>
<!-- Generator: Adobe Illustrator 26.4.1, SVG Export Plug-In . SVG Version: 6.00 Build 0)  -->
<svg version="1.1" id="Layer_1" xmlns="http://www.w3.org/2000/svg" xmlns:xlink="http://www.w3.org/1999/xlink" x="0px" y="0px"
	 viewBox="0 0 400 86.5" style="enable-background:new 0 0 400 86.5;" xml:space="preserve">
<style type="text/css">
	.st0{fill:#292929;}
</style>
<path class="st0" d="M346.9,44l53,27.7l0.1,14.8l-400,0l0-14.8l82.1-49.9l5.5,2.2l20.3-24L129,13.7l2.2-3l31.4,21.8l-8.1,9.2
	l-25.5-20l-14.8,17.8L98,44L72.8,71.7L98,52.5l16.3-5.2l17-21.5l35.1,34l21.5,10l-18.1-14.4L156.8,44l31.1-35.9l5.2,2.6l7.4-8.5
	l30,23.7L220,44l28.1-33.3L296.2,44l-10.4,11.5l-9.2-6.3l-12.2,20.7l15.2-14.4l6.3,7.4l29.6-37l27.4,21.5L346.9,44z"/>
</svg>
